# xmcd
#
# Track frame offsets: 
#        150
#        3680
#        15461
#        27036
#        36836
#        40524
#        50780
#        54922
#        61892
#        62278
#        63992
#        76398
#        84525
#        91001
#        98173
#        113393
#        125537
#        138997
#        150407
#        162315
#        173617
#        185326
#        197036
#        209658
#        221252
#        230919
#        235473
#        244614
#        245119
#        247966
#        249381
#        257438
#        258830
#        269303
#        271281
#        272802
#        274663
#
# Disc length: 3695 seconds
#
# Revision: 0
# Processed by: cddbd v1.5.2PL0 Copyright (c) Steve Scherf et al.
# Submitted via: ExactAudioCopy v0.95b3
#
DISCID=f10e6d25
DTITLE=The Beatles  - Live 10 - Far East Men (Purple Chick) - Disc 1
DYEAR=1900
DGENRE=
TTITLE0=Intro (Munich 1966) (afternoon)
TTITLE1=Baby's In Black (Munich 1966)
TTITLE2=I Feel Fine (Munich 1966) (afternoon)
TTITLE3=Yesterday (Munich 1966) (afternoon)
TTITLE4=I Wanna Be Your Man (Munich 1966) (afternoon)
TTITLE5=I'm Down (Munich 1966) (afternoon)
TTITLE6=intro (Munich 1966) (evening)
TTITLE7=Rock and Roll Music (Munich 1966) (evening)
TTITLE8=She's A Woman intro (Munich 1966) (evening)
TTITLE9=intro (Munich 1966) (evening)
TTITLE10=Nowhere Man (Munich 1966) (evening)
TTITLE11=I'm Down (Munich 1966) (evening)
TTITLE12=intro (Essen 1966) (afternoon)
TTITLE13=Rock and Roll Music (Essen 1966) (afternoon)
TTITLE14=She's A Woman (Essen 1966) (afternoon)
TTITLE15=If I Needed Someone (Essen 1966) (afternoon)
TTITLE16=Day Tripper (Essen 1966) (afternoon)
TTITLE17=Baby's In Black (Essen 1966) (afternoon)
TTITLE18=I Feel Fine (Essen 1966) (afternoon)
TTITLE19=Yesterday (Essen 1966) (afternoon)
TTITLE20=I Wanna Be Your Man (Essen 1966) (afternoon)
TTITLE21=Nowhere Man (Essen 1966) (afternoon)
TTITLE22=Paperback Writer (Essen 1966) (afternoon)
TTITLE23=I'm Down (Essen 1966) (afternoon)
TTITLE24=Paperback Writer (Essen 1966) (evening)
TTITLE25=intro (Hamburg 1966)
TTITLE26=Day Tripper (Hamburg 1966)
TTITLE27=intro (Hamburg 1966)
TTITLE28=Baby's In Black (Hamburg 1966)
TTITLE29=I Feel Fine (Hamburg 1966)
TTITLE30=I Wanna Be Your Man (Hamburg 1966)
TTITLE31=Nowhere Man (Hamburg 1966)
TTITLE32=Paperback Writer (Hamburg 1966)
TTITLE33=outro (Hamburg 1966)
TTITLE34=Nowhere Man (Hamburg 1966 - voiceover source)
TTITLE35=Paperback Writer (Hamburg 1966 - voiceover source)
TTITLE36=Paperback Writer (Hamburg 1966 - Damals source)
EXTD=
EXTT0=
EXTT1=
EXTT2=
EXTT3=
EXTT4=
EXTT5=
EXTT6=
EXTT7=
EXTT8=
EXTT9=
EXTT10=
EXTT11=
EXTT12=
EXTT13=
EXTT14=
EXTT15=
EXTT16=
EXTT17=
EXTT18=
EXTT19=
EXTT20=
EXTT21=
EXTT22=
EXTT23=
EXTT24=
EXTT25=
EXTT26=
EXTT27=
EXTT28=
EXTT29=
EXTT30=
EXTT31=
EXTT32=
EXTT33=
EXTT34=
EXTT35=
EXTT36=
PLAYORDER=
